<?xml version="1.0" encoding="utf-8"?>
<!-- Generator: Adobe Illustrator 23.0.6, SVG Export Plug-In . SVG Version: 6.00 Build 0)  -->
<svg version="1.1" id="Layer_1" xmlns="http://www.w3.org/2000/svg" xmlns:xlink="http://www.w3.org/1999/xlink" x="0px" y="0px"
	 viewBox="0 0 24 24" style="enable-background:new 0 0 24 24;" xml:space="preserve">
<style type="text/css">
	.st0{fill:#FFFFFF;}
</style>
<path class="st0" d="M20,15.3l2.6-2.6c0.4-0.4,0.4-1,0-1.4L20,8.7V5c0-0.6-0.5-1-1-1h-3.7l-2.6-2.6c-0.4-0.4-1-0.4-1.4,0L8.7,4H5
	C4.4,4,4,4.4,4,5v3.7l-2.6,2.6c-0.4,0.4-0.4,1,0,1.4L4,15.3V19c0,0.5,0.4,1,1,1h3.7l2.6,2.6c0.4,0.4,1,0.4,1.4,0l2.6-2.6H19
	c0.5,0,1-0.5,1-1C20,19,20,15.3,20,15.3z M12,18c-3.3,0-6-2.7-6-6s2.7-6,6-6s6,2.7,6,6S15.3,18,12,18z"/>
</svg>
