<?xml version="1.0" encoding="utf-8"?>
<!-- Generator: Adobe Illustrator 23.0.6, SVG Export Plug-In . SVG Version: 6.00 Build 0)  -->
<svg version="1.1" id="Layer_1" xmlns="http://www.w3.org/2000/svg" xmlns:xlink="http://www.w3.org/1999/xlink" x="0px" y="0px"
	 viewBox="0 0 24 24" style="enable-background:new 0 0 24 24;" xml:space="preserve">
<style type="text/css">
	.st0{fill:#FFFFFF;}
</style>
<path class="st0" d="M22.6,11.3L20,8.7V5c0-0.6-0.5-1-1-1h-3.7l-2.6-2.6c-0.4-0.4-1-0.4-1.4,0L8.7,4H5C4.4,4,4,4.4,4,5v3.7l-2.6,2.6
	c-0.4,0.4-0.4,1,0,1.4L4,15.3V19c0,0.5,0.4,1,1,1h3.7l2.6,2.6c0.4,0.4,1,0.4,1.4,0l2.6-2.6H19c0.5,0,1-0.5,1-1v-3.7l2.6-2.6
	C23,12.3,23,11.7,22.6,11.3z M17.9,13c-0.3,2.1-1.9,3.9-3.9,4.7c-1.2,0.4-2.4,0.5-3.5,0.2c-0.4-0.1-0.5-0.6-0.1-0.9
	C12,15.8,13,14,13,12s-1-3.8-2.6-4.9c-0.4-0.2-0.3-0.8,0.1-0.9c1.1-0.3,2.3-0.2,3.5,0.2c2,0.7,3.5,2.5,3.9,4.7c0,0.3,0.1,0.7,0.1,1
	C18,12.3,18,12.6,17.9,13z"/>
</svg>
