<?xml version="1.0" encoding="utf-8"?>
<!-- Generator: Adobe Illustrator 23.0.6, SVG Export Plug-In . SVG Version: 6.00 Build 0)  -->
<svg version="1.1" id="Layer_1" xmlns="http://www.w3.org/2000/svg" xmlns:xlink="http://www.w3.org/1999/xlink" x="0px" y="0px"
	 viewBox="0 0 24 24" style="enable-background:new 0 0 24 24;" xml:space="preserve">
<style type="text/css">
	.st0{fill:none;}
	.st1{fill:#FFFFFF;}
</style>
<path class="st0" d="M0,0h24v24H0V0z"/>
<path class="st1" d="M12,6v1.8c0,0.4,0.5,0.7,0.9,0.4l2.8-2.8c0.2-0.2,0.2-0.5,0-0.7l-2.8-2.8C12.5,1.5,12,1.8,12,2.2V4
	c-4.4,0-8,3.6-8,8c0,1,0.2,2,0.6,2.9c0.3,0.7,1.1,0.9,1.6,0.3c0.3-0.3,0.4-0.7,0.2-1C6.2,13.6,6,12.8,6,12C6,8.7,8.7,6,12,6z
	 M17.8,8.7c-0.3,0.3-0.4,0.7-0.2,1c0.3,0.7,0.4,1.5,0.4,2.2c0,3.3-2.7,6-6,6v-1.8c0-0.4-0.5-0.7-0.9-0.3l-2.8,2.8
	c-0.2,0.2-0.2,0.5,0,0.7l2.8,2.8c0.3,0.3,0.9,0.1,0.9-0.4V20c4.4,0,8-3.6,8-8c0-1-0.2-2-0.6-2.9C19.2,8.4,18.3,8.2,17.8,8.7z"/>
</svg>
