<?xml version="1.0" encoding="utf-8"?>
<!-- Generator: Adobe Illustrator 24.0.1, SVG Export Plug-In . SVG Version: 6.00 Build 0)  -->
<svg version="1.1" id="Layer_1" xmlns="http://www.w3.org/2000/svg" xmlns:xlink="http://www.w3.org/1999/xlink" x="0px" y="0px"
	 viewBox="0 0 375.6 375.6" style="enable-background:new 0 0 375.6 375.6;" xml:space="preserve">
<style type="text/css">
	.st0{fill:none;stroke:#FFFFFF;stroke-miterlimit:10;}
</style>
<g>
	<g>
		<g>
			<ellipse class="st0" cx="172.2" cy="188.5" rx="15.1" ry="3.3"/>
			<path class="st0" d="M174.5,171.4c7.1,0,12.8,7.7,12.8,17.1v0"/>
			<path class="st0" d="M174.5,171.4h-4.6c-7.1,0-12.8,7.7-12.8,17.1v0"/>
		</g>
		<g>
			<ellipse class="st0" cx="172.2" cy="154.2" rx="15.1" ry="3.3"/>
			<path class="st0" d="M169.9,171.4c-7.1,0-12.8-7.7-12.8-17.1v0"/>
			<path class="st0" d="M169.9,171.4h4.6c7.1,0,12.8-7.7,12.8-17.1v0"/>
		</g>
	</g>
	<line class="st0" x1="143.9" y1="208.2" x2="231.7" y2="208.2"/>
	<circle class="st0" cx="236.1" cy="208.2" r="4.3"/>
	<circle class="st0" cx="139.5" cy="208.2" r="4.3"/>
	<line class="st0" x1="159.8" y1="196.4" x2="159.8" y2="220.6"/>
	<line class="st0" x1="172.2" y1="191.8" x2="172.2" y2="216"/>
	<line class="st0" x1="184" y1="200.4" x2="184.1" y2="224.6"/>
	<line class="st0" x1="206.5" y1="200.4" x2="206.6" y2="224.6"/>
	<line class="st0" x1="219.1" y1="187.4" x2="219.3" y2="211.6"/>
</g>
</svg>
